<?xml version="1.0" encoding="UTF-8" standalone="no"?>
<svg
   id="Layer_1"
   data-name="Layer 1"
   viewBox="0 0 734.80001 848.5"
   version="1.1"
   sodipodi:docname="musclesyneRgies_logo.svg"
   inkscape:version="1.1.1 (3bf5ae0d25, 2021-09-20)"
   width="734.79999"
   height="848.5"
   xmlns:inkscape="http://www.inkscape.org/namespaces/inkscape"
   xmlns:sodipodi="http://sodipodi.sourceforge.net/DTD/sodipodi-0.dtd"
   xmlns="http://www.w3.org/2000/svg"
   xmlns:svg="http://www.w3.org/2000/svg"
   xmlns:rdf="http://www.w3.org/1999/02/22-rdf-syntax-ns#"
   xmlns:cc="http://creativecommons.org/ns#"
   xmlns:dc="http://purl.org/dc/elements/1.1/">
  <sodipodi:namedview
     id="namedview118"
     pagecolor="#ffffff"
     bordercolor="#999999"
     borderopacity="1"
     inkscape:pageshadow="0"
     inkscape:pageopacity="0"
     inkscape:pagecheckerboard="0"
     showgrid="false"
     inkscape:zoom="0.35355339"
     inkscape:cx="554.37172"
     inkscape:cy="739.63369"
     inkscape:window-width="1842"
     inkscape:window-height="1051"
     inkscape:window-x="69"
     inkscape:window-y="-9"
     inkscape:window-maximized="1"
     inkscape:current-layer="Layer_1"
     inkscape:document-units="pt"
     lock-margins="true"
     fit-margin-top="0"
     fit-margin-left="0"
     fit-margin-right="0"
     fit-margin-bottom="0" />
  <defs
     id="defs13">
    <style
       id="style2">.cls-1,.cls-12,.cls-8{fill:none;}.cls-2{fill:#dcddde;}.cls-3{fill:#ba6f38;}.cls-4{clip-path:url(#clip-path);}.cls-5{fill:#ed7d15;}.cls-6{clip-path:url(#clip-path-2);}.cls-7{fill:#f2f2f2;}.cls-8{stroke:#fff;stroke-width:3.5px;}.cls-12,.cls-8{stroke-miterlimit:10;}.cls-9{fill:#000643;}.cls-10{fill:#e6b35a;}.cls-11{fill:#424242;}.cls-12{stroke:#424242;stroke-width:12px;}.cls-13{fill:#51a7f9;}.cls-14{fill:#a8d6ff;}.cls-15{fill:#0365c0;}.cls-16{fill:#164f86;}.cls-17{fill:#002452;}.cls-18{clip-path:url(#clip-path-3);}.cls-19{fill:#36a85d;}</style>
  </defs>
  <title
     id="title15">RStudio_Hex 2016 v7 outlines</title>
  <metadata
     id="metadata935">
    <rdf:RDF>
      <cc:Work
         rdf:about="">
        <dc:title>RStudio_Hex 2016 v7 outlines</dc:title>
      </cc:Work>
    </rdf:RDF>
  </metadata>
  <path
     style="fill:#ffc8c8;fill-opacity:1;stroke:none;stroke-width:1px;stroke-linecap:butt;stroke-linejoin:miter;stroke-opacity:1"
     d="M 367.4,16.835 13.7437,221.0164 V 629.4837 L 367.4,833.6651 721.0564,629.4837 V 221.0164 Z"
     id="path2731-6-2"
     inkscape:export-filename="C:\Users\aless\Documents\Data\musclesyneRgies\images\musclesyneRgies_logo.png"
     inkscape:export-xdpi="23.65"
     inkscape:export-ydpi="23.65" />
  <path
     style="color:#000000;font-variation-settings:normal;vector-effect:none;fill:#ffc8c8;fill-opacity:1;fill-rule:evenodd;stroke:#ce2d2a;stroke-width:6.66667;stroke-linecap:round;stroke-linejoin:round;stroke-miterlimit:6.4;stroke-dasharray:none;stroke-dashoffset:0;stroke-opacity:1;-inkscape-stroke:none;stop-color:#000000"
     d="m 367.3999,727.252 c -36.2103,0 -68.9604,-14.6448 -92.6578,-38.3423 -23.6975,-23.6974 -38.3423,-56.4475 -38.3423,-92.6578 0,-26.4246 7.8157,-50.9771 21.2573,-71.5135 3.3604,-5.1341 7.0724,-10.0172 11.1018,-14.6158 2.0147,-2.2993 4.1088,-4.5275 6.2779,-6.6803 2.1691,-2.1528 4.4132,-4.2304 6.7282,-6.2284 4.6299,-3.9961 9.5431,-7.6742 14.7051,-11.0008 5.162,-3.3266 10.5731,-6.3016 16.1988,-8.8917 -6.1252,6.6436 -11.0761,14.3854 -14.4956,22.8978 -1.7099,4.2561 -3.0368,8.7049 -3.9363,13.3053 -0.8996,4.6004 -1.3716,9.3525 -1.3716,14.2153 0,41.0929 33.4417,74.5346 74.5345,74.5345 34.5827,0 62.4879,27.9069 62.4879,62.4898 0,34.5827 -27.9052,62.4879 -62.4879,62.4879 z"
     id="path10585-9-6"
     sodipodi:nodetypes="sssssssccssssss"
     inkscape:export-filename="C:\Users\aless\Documents\Data\musclesyneRgies\images\musclesyneRgies_logo.png"
     inkscape:export-xdpi="23.65"
     inkscape:export-ydpi="23.65" />
  <path
     style="color:#000000;font-variation-settings:normal;vector-effect:none;fill:#ce2d2a;fill-opacity:1;fill-rule:evenodd;stroke:#ce2d2a;stroke-width:6.66667;stroke-linecap:round;stroke-linejoin:round;stroke-miterlimit:6.4;stroke-dasharray:none;stroke-dashoffset:0;stroke-opacity:1;-inkscape-stroke:none;stop-color:#000000"
     d="m 275.0368,503.4423 c 5.5439,-5.4854 39.8293,-45.9382 39.8293,-45.9382 l 7.9278,5.4423 c 0,0 -25.9063,37.2803 -28.5569,50.5781 z"
     id="path10587-5-3"
     sodipodi:nodetypes="ccccc"
     inkscape:export-filename="C:\Users\aless\Documents\Data\musclesyneRgies\images\musclesyneRgies_logo.png"
     inkscape:export-xdpi="23.65"
     inkscape:export-ydpi="23.65" />
  <path
     style="fill:none;stroke:#ce2d2a;stroke-width:6.66667;stroke-linecap:round;stroke-linejoin:round;stroke-miterlimit:4;stroke-dasharray:none;stroke-opacity:1"
     d="m 406.2801,670.2463 h -25.8097 l -8.1005,13.73 -8.1002,-23.1709 -8.1005,42.3291 -8.1004,-85.2157 -8.1003,72.6246 -8.1004,-20.2971 h -28.8263"
     id="path10589-5-4"
     sodipodi:nodetypes="ccccccccc"
     inkscape:export-filename="C:\Users\aless\Documents\Data\musclesyneRgies\images\musclesyneRgies_logo.png"
     inkscape:export-xdpi="23.65"
     inkscape:export-ydpi="23.65" />
  <path
     class="cls-11"
     d="M 705.5,195.2 427.7,34.8 367.4,0 307.1,34.8 29.3,195.2 0,212.1 v 424.3 l 29.3,16.9 281.2,162.4 56.9,32.8 56.9,-32.8 281.2,-162.4 29.3,-16.9 V 212.1 Z m 0,425.3 L 367.4,815.7 29.3,620.5 V 230 L 367.4,34.8 v 0 L 705.5,230 Z"
     id="path2737-70-6"
     style="fill:#ce2d2a;fill-opacity:1;stroke-width:1;stroke-miterlimit:10;stroke-dasharray:none"
     inkscape:export-filename="C:\Users\aless\Documents\Data\musclesyneRgies\images\musclesyneRgies_logo.png"
     inkscape:export-xdpi="23.65"
     inkscape:export-ydpi="23.65" />
  <text
     xml:space="preserve"
     style="font-style:normal;font-variant:normal;font-weight:normal;font-stretch:normal;font-size:149.953px;line-height:1.25;font-family:Gadugi;-inkscape-font-specification:Gadugi;font-variant-ligatures:normal;font-variant-position:normal;font-variant-caps:normal;font-variant-numeric:normal;font-variant-alternates:normal;font-variant-east-asian:normal;font-feature-settings:normal;text-indent:0;text-align:center;text-decoration-line:none;text-decoration-style:solid;text-decoration-color:#000000;letter-spacing:0px;word-spacing:0px;text-transform:none;writing-mode:lr-tb;direction:ltr;text-orientation:mixed;dominant-baseline:auto;baseline-shift:baseline;text-anchor:middle;white-space:normal;shape-padding:0;shape-margin:0;inline-size:0;vector-effect:none;fill:#ce2d2a;fill-opacity:1;stroke-width:1.1162;stroke-linecap:butt;stroke-linejoin:miter;stroke-miterlimit:4;stroke-dasharray:none;stroke-dashoffset:0;stroke-opacity:1;-inkscape-stroke:none;stop-color:#000000"
     x="290.48053"
     y="259.03894"
     id="text2741-6-2"
     transform="matrix(0.89589951,0,0,0.89589951,104.4036,35.576)"
     inkscape:export-filename="C:\Users\aless\Documents\Data\musclesyneRgies\images\musclesyneRgies_logo.png"
     inkscape:export-xdpi="23.65"
     inkscape:export-ydpi="23.65"><tspan
       sodipodi:role="line"
       x="290.48053"
       y="259.03894"
       id="tspan2739-21-8"
       style="fill:#ce2d2a;fill-opacity:1;stroke-width:1.1162">muscle</tspan></text>
  <text
     xml:space="preserve"
     style="font-style:normal;font-variant:normal;font-weight:normal;font-stretch:normal;font-size:149.953px;line-height:1.25;font-family:Gadugi;-inkscape-font-specification:Gadugi;font-variant-ligatures:normal;font-variant-position:normal;font-variant-caps:normal;font-variant-numeric:normal;font-variant-alternates:normal;font-variant-east-asian:normal;font-feature-settings:normal;text-indent:0;text-align:center;text-decoration-line:none;text-decoration-style:solid;text-decoration-color:#000000;letter-spacing:0px;word-spacing:0px;text-transform:none;writing-mode:lr-tb;direction:ltr;text-orientation:mixed;dominant-baseline:auto;baseline-shift:baseline;text-anchor:middle;white-space:normal;shape-padding:0;shape-margin:0;inline-size:0;vector-effect:none;fill:#ce2d2a;fill-opacity:1;stroke-width:1.1162;stroke-linecap:butt;stroke-linejoin:miter;stroke-miterlimit:4;stroke-dasharray:none;stroke-dashoffset:0;stroke-opacity:1;-inkscape-stroke:none;stop-color:#000000"
     x="290.48053"
     y="307.03894"
     id="text2745-44-3"
     transform="matrix(0.89589951,0,0,0.89589951,106.5683,133.7214)"
     inkscape:export-filename="C:\Users\aless\Documents\Data\musclesyneRgies\images\musclesyneRgies_logo.png"
     inkscape:export-xdpi="23.65"
     inkscape:export-ydpi="23.65"><tspan
       sodipodi:role="line"
       x="290.48053"
       y="307.03894"
       id="tspan2743-35-8"
       style="fill:#ce2d2a;fill-opacity:1;stroke-width:1.1162">syneRgies</tspan></text>
  <path
     style="color:#000000;font-variation-settings:normal;vector-effect:none;fill:#ce2d2a;fill-opacity:1;fill-rule:evenodd;stroke:#ce2d2a;stroke-width:6.66667;stroke-linecap:round;stroke-linejoin:round;stroke-miterlimit:6.4;stroke-dasharray:none;stroke-dashoffset:0;stroke-opacity:1;-inkscape-stroke:none;stop-color:#000000"
     d="m 367.4,465.25 c 36.2103,0 68.9604,14.6448 92.6578,38.3423 23.6975,23.6974 38.3423,56.4475 38.3423,92.6578 0,26.4246 -7.8157,50.9771 -21.2573,71.5135 -3.3604,5.1341 -7.0724,10.0172 -11.1018,14.6158 -2.0147,2.2993 -4.1088,4.5275 -6.2779,6.6803 -2.1691,2.1528 -4.4132,4.2304 -6.7282,6.2284 -4.6299,3.9961 -9.5431,7.6742 -14.7051,11.0008 -5.162,3.3266 -10.5731,6.3016 -16.1988,8.8917 6.1252,-6.6436 11.0761,-14.3854 14.4956,-22.8978 1.7099,-4.2561 3.0368,-8.7049 3.9363,-13.3053 0.8996,-4.6004 1.3716,-9.3525 1.3716,-14.2153 0,-41.0929 -33.4417,-74.5346 -74.5345,-74.5345 -34.5827,0 -62.4879,-27.9069 -62.4879,-62.4898 0,-34.5827 27.9052,-62.4879 62.4879,-62.4879 z"
     id="path2417-1-1-9"
     sodipodi:nodetypes="sssssssccssssss"
     inkscape:export-filename="C:\Users\aless\Documents\Data\musclesyneRgies\images\musclesyneRgies_logo.png"
     inkscape:export-xdpi="23.65"
     inkscape:export-ydpi="23.65" />
  <path
     style="color:#000000;font-variation-settings:normal;vector-effect:none;fill:#ffc8c8;fill-opacity:1;fill-rule:evenodd;stroke:#ce2d2a;stroke-width:6.66667;stroke-linecap:round;stroke-linejoin:round;stroke-miterlimit:6.4;stroke-dasharray:none;stroke-dashoffset:0;stroke-opacity:1;-inkscape-stroke:none;stop-color:#000000"
     d="m 459.7631,689.0597 c -5.5439,5.4854 -39.8293,45.9382 -39.8293,45.9382 l -7.9278,-5.4423 c 0,0 25.9063,-37.2803 28.5569,-50.5781 z"
     id="path5867-7-3"
     sodipodi:nodetypes="ccccc"
     inkscape:export-filename="C:\Users\aless\Documents\Data\musclesyneRgies\images\musclesyneRgies_logo.png"
     inkscape:export-xdpi="23.65"
     inkscape:export-ydpi="23.65" />
  <path
     style="fill:none;stroke:#ffc8c8;stroke-width:6.66667;stroke-linecap:round;stroke-linejoin:round;stroke-miterlimit:4;stroke-dasharray:none;stroke-opacity:1"
     d="m 328.5198,522.2557 h 25.8097 l 8.1005,-13.73 8.1002,23.1709 8.1005,-42.3291 8.1004,85.2157 8.1003,-72.6246 8.1004,20.2971 h 28.8263"
     id="path2751-5-0-5"
     sodipodi:nodetypes="ccccccccc"
     inkscape:export-filename="C:\Users\aless\Documents\Data\musclesyneRgies\images\musclesyneRgies_logo.png"
     inkscape:export-xdpi="23.65"
     inkscape:export-ydpi="23.65" />
</svg>
